<svg xmlns="http://www.w3.org/2000/svg" width="900" height="368" viewBox="148 265 900 368">
  <path d="M 773 371 L 773 629 L 834 629 L 834 371 L 818 371 L 817 370 L 800 370 L 799 371 Z M 326 421 L 326 422 L 325 423 L 325 424 L 323 426 L 323 427 L 322 428 L 322 429 L 321 430 L 321 431 L 320 432 L 320 433 L 317 438 L 317 440 L 315 443 L 315 445 L 314 446 L 314 448 L 313 449 L 313 451 L 312 452 L 312 454 L 311 455 L 311 458 L 310 459 L 310 462 L 309 463 L 309 467 L 308 468 L 308 473 L 307 474 L 307 481 L 306 482 L 306 498 L 305 499 L 305 502 L 306 503 L 306 518 L 307 519 L 307 525 L 308 526 L 308 531 L 309 532 L 309 536 L 310 537 L 310 540 L 311 541 L 311 543 L 312 544 L 312 547 L 313 548 L 313 550 L 314 551 L 314 553 L 316 556 L 316 558 L 317 559 L 317 560 L 318 561 L 318 562 L 319 563 L 319 564 L 320 565 L 321 568 L 323 570 L 323 571 L 324 572 L 325 575 L 327 577 L 327 578 L 329 580 L 329 581 L 332 584 L 332 585 L 337 590 L 337 591 L 345 599 L 346 599 L 352 605 L 353 605 L 356 608 L 357 608 L 359 610 L 360 610 L 365 614 L 368 615 L 370 617 L 371 617 L 372 618 L 373 618 L 374 619 L 375 619 L 380 622 L 382 622 L 385 624 L 387 624 L 388 625 L 390 625 L 391 626 L 393 626 L 394 627 L 396 627 L 397 628 L 400 628 L 401 629 L 404 629 L 405 630 L 409 630 L 410 631 L 415 631 L 416 632 L 425 632 L 426 633 L 451 633 L 452 632 L 460 632 L 461 631 L 467 631 L 468 630 L 472 630 L 473 629 L 476 629 L 477 628 L 480 628 L 481 627 L 484 627 L 485 626 L 487 626 L 488 625 L 490 625 L 491 624 L 493 624 L 494 623 L 496 623 L 497 622 L 498 622 L 499 621 L 501 621 L 502 620 L 503 620 L 504 619 L 505 619 L 506 618 L 507 618 L 512 615 L 514 615 L 516 613 L 517 613 L 518 612 L 521 611 L 526 607 L 527 607 L 528 606 L 529 606 L 531 604 L 532 604 L 535 601 L 536 601 L 539 598 L 540 598 L 544 594 L 545 594 L 567 572 L 567 571 L 572 566 L 572 565 L 578 558 L 578 557 L 580 555 L 580 554 L 584 549 L 585 546 L 587 544 L 587 543 L 591 538 L 592 539 L 592 629 L 653 629 L 653 482 L 654 481 L 654 475 L 655 474 L 655 471 L 656 470 L 656 468 L 657 467 L 657 464 L 658 463 L 658 461 L 659 460 L 659 459 L 660 458 L 660 457 L 661 456 L 662 453 L 664 451 L 665 448 L 669 444 L 669 443 L 675 437 L 676 437 L 679 434 L 680 434 L 682 432 L 683 432 L 684 431 L 685 431 L 690 428 L 692 428 L 693 427 L 695 427 L 696 426 L 700 426 L 701 425 L 721 425 L 722 426 L 725 426 L 726 427 L 729 427 L 732 429 L 734 429 L 735 430 L 736 430 L 737 429 L 737 426 L 738 425 L 738 422 L 739 421 L 739 419 L 740 418 L 740 415 L 741 414 L 741 411 L 742 410 L 742 408 L 743 407 L 743 404 L 744 403 L 744 400 L 745 399 L 745 396 L 746 395 L 746 393 L 747 392 L 747 389 L 748 388 L 748 385 L 749 384 L 749 381 L 750 380 L 750 377 L 751 376 L 751 374 L 752 373 L 752 369 L 751 369 L 750 368 L 748 368 L 747 367 L 745 367 L 744 366 L 741 366 L 740 365 L 736 365 L 735 364 L 714 364 L 713 365 L 708 365 L 707 366 L 704 366 L 703 367 L 701 367 L 700 368 L 698 368 L 697 369 L 696 369 L 695 370 L 694 370 L 693 371 L 692 371 L 691 372 L 690 372 L 689 373 L 686 374 L 684 376 L 683 376 L 679 380 L 678 380 L 670 388 L 670 389 L 666 393 L 666 394 L 662 399 L 662 400 L 661 401 L 661 402 L 660 403 L 659 406 L 657 408 L 657 410 L 656 411 L 656 412 L 653 417 L 653 419 L 652 420 L 651 419 L 651 416 L 650 415 L 650 408 L 649 407 L 649 398 L 648 397 L 648 387 L 647 386 L 647 371 L 640 371 L 639 370 L 595 370 L 594 371 L 593 370 L 592 370 L 591 371 L 591 381 L 592 382 L 592 409 L 591 410 L 591 420 L 590 421 L 590 427 L 589 428 L 589 433 L 588 434 L 588 438 L 587 439 L 587 443 L 586 444 L 586 447 L 585 448 L 585 451 L 584 452 L 584 454 L 583 455 L 583 457 L 582 458 L 582 461 L 581 462 L 581 464 L 580 465 L 580 467 L 578 470 L 578 472 L 576 475 L 576 477 L 573 482 L 573 484 L 572 485 L 572 486 L 571 487 L 571 488 L 570 489 L 570 490 L 569 491 L 569 492 L 568 493 L 568 494 L 567 495 L 566 498 L 564 500 L 563 503 L 561 505 L 561 506 L 559 508 L 559 509 L 557 511 L 557 512 L 555 514 L 555 515 L 553 517 L 553 518 L 550 521 L 550 522 L 546 526 L 546 527 L 538 535 L 538 536 L 523 550 L 522 550 L 515 556 L 514 556 L 512 558 L 511 558 L 506 562 L 503 563 L 501 565 L 500 565 L 499 566 L 498 566 L 497 567 L 496 567 L 495 568 L 494 568 L 489 571 L 487 571 L 484 573 L 482 573 L 481 574 L 479 574 L 478 575 L 476 575 L 475 576 L 472 576 L 471 577 L 468 577 L 467 578 L 463 578 L 462 579 L 457 579 L 456 580 L 428 580 L 427 579 L 422 579 L 421 578 L 418 578 L 415 576 L 413 576 L 412 575 L 410 575 L 409 574 L 408 574 L 407 573 L 406 573 L 405 572 L 404 572 L 403 571 L 402 571 L 401 570 L 398 569 L 396 567 L 395 567 L 382 554 L 382 553 L 379 550 L 378 547 L 376 545 L 376 544 L 375 543 L 375 541 L 373 538 L 373 536 L 372 535 L 372 533 L 371 532 L 371 529 L 370 528 L 370 524 L 369 523 L 369 518 L 368 517 L 368 516 L 369 515 L 496 515 L 497 514 L 503 514 L 504 513 L 508 513 L 509 512 L 511 512 L 512 511 L 514 511 L 515 510 L 517 510 L 518 509 L 519 509 L 520 508 L 521 508 L 522 507 L 525 506 L 527 504 L 528 504 L 530 502 L 531 502 L 541 492 L 541 491 L 543 489 L 544 486 L 546 484 L 546 482 L 548 479 L 548 477 L 549 476 L 549 473 L 550 472 L 550 468 L 551 467 L 551 451 L 550 450 L 550 444 L 549 443 L 549 440 L 548 439 L 548 437 L 547 436 L 547 434 L 546 433 L 546 431 L 545 430 L 545 428 L 544 427 L 544 426 L 543 425 L 543 424 L 542 423 L 541 420 L 539 418 L 538 415 L 536 413 L 536 412 L 534 410 L 534 409 L 530 405 L 530 404 L 517 391 L 516 391 L 509 385 L 508 385 L 503 381 L 500 380 L 498 378 L 497 378 L 496 377 L 494 377 L 493 376 L 492 376 L 487 373 L 485 373 L 482 371 L 480 371 L 479 370 L 477 370 L 476 369 L 473 369 L 472 368 L 469 368 L 468 367 L 465 367 L 464 366 L 460 366 L 459 365 L 452 365 L 451 364 L 419 364 L 418 365 L 411 365 L 410 366 L 406 366 L 405 367 L 402 367 L 401 368 L 398 368 L 397 369 L 395 369 L 394 370 L 392 370 L 391 371 L 389 371 L 388 372 L 386 372 L 385 373 L 383 373 L 382 374 L 381 374 L 380 375 L 379 375 L 378 376 L 377 376 L 376 377 L 375 377 L 374 378 L 373 378 L 372 379 L 371 379 L 370 380 L 367 381 L 365 383 L 362 384 L 359 387 L 358 387 L 355 390 L 354 390 L 350 394 L 349 394 L 338 405 L 338 406 L 333 411 L 333 412 L 330 415 L 330 416 Z M 370 464 L 371 463 L 371 460 L 372 459 L 372 457 L 373 456 L 373 454 L 375 451 L 375 449 L 376 448 L 376 447 L 377 446 L 378 443 L 380 441 L 380 440 L 382 438 L 382 437 L 388 431 L 388 430 L 390 428 L 391 428 L 396 423 L 397 423 L 402 419 L 403 419 L 408 416 L 410 416 L 413 414 L 416 414 L 417 413 L 420 413 L 421 412 L 428 412 L 429 411 L 440 411 L 441 412 L 447 412 L 448 413 L 452 413 L 453 414 L 455 414 L 456 415 L 458 415 L 459 416 L 460 416 L 461 417 L 462 417 L 463 418 L 464 418 L 465 419 L 468 420 L 471 423 L 472 423 L 483 434 L 483 435 L 485 437 L 485 438 L 486 439 L 486 440 L 487 441 L 487 442 L 490 447 L 490 449 L 491 450 L 491 452 L 492 453 L 492 456 L 493 457 L 493 461 L 494 462 L 494 469 L 493 470 L 371 470 L 370 469 Z M 309 369 L 308 369 L 307 368 L 305 368 L 304 367 L 302 367 L 301 366 L 298 366 L 297 365 L 293 365 L 292 364 L 270 364 L 269 365 L 265 365 L 264 366 L 261 366 L 260 367 L 258 367 L 255 369 L 253 369 L 252 370 L 251 370 L 250 371 L 247 372 L 245 374 L 244 374 L 242 376 L 241 376 L 239 378 L 238 378 L 225 391 L 225 392 L 223 394 L 223 395 L 219 400 L 218 403 L 216 405 L 216 406 L 213 411 L 213 413 L 211 416 L 211 418 L 209 420 L 208 419 L 208 412 L 207 411 L 207 403 L 206 402 L 206 391 L 205 390 L 205 378 L 204 377 L 204 371 L 193 371 L 192 370 L 172 370 L 171 371 L 170 370 L 169 370 L 168 371 L 148 371 L 148 629 L 210 629 L 210 484 L 211 483 L 211 476 L 212 475 L 212 471 L 213 470 L 213 467 L 214 466 L 214 464 L 215 463 L 215 461 L 216 460 L 216 459 L 217 458 L 217 457 L 218 456 L 219 453 L 221 451 L 221 450 L 223 448 L 223 447 L 228 442 L 228 441 L 230 439 L 231 439 L 236 434 L 237 434 L 239 432 L 240 432 L 241 431 L 242 431 L 247 428 L 249 428 L 250 427 L 253 427 L 254 426 L 258 426 L 259 425 L 278 425 L 279 426 L 283 426 L 284 427 L 287 427 L 288 428 L 290 428 L 291 429 L 294 430 L 294 427 L 295 426 L 295 423 L 296 422 L 296 419 L 297 418 L 297 416 L 298 415 L 298 412 L 299 411 L 299 409 L 300 408 L 300 405 L 301 404 L 301 401 L 302 400 L 302 397 L 303 396 L 303 393 L 304 392 L 304 390 L 305 389 L 305 386 L 306 385 L 306 382 L 307 381 L 307 378 L 308 377 L 308 375 L 309 374 L 309 372 L 310 371 L 310 370 Z M 986 268 L 986 629 L 1048 629 L 1048 268 Z M 880 268 L 880 270 L 879 271 L 879 273 L 880 274 L 879 275 L 879 279 L 880 280 L 880 286 L 879 287 L 879 288 L 880 289 L 880 319 L 879 320 L 879 322 L 880 323 L 880 330 L 879 331 L 879 334 L 880 335 L 880 363 L 879 364 L 879 365 L 880 366 L 880 629 L 941 629 L 941 268 Z M 797 265 L 796 266 L 793 266 L 792 267 L 790 267 L 789 268 L 788 268 L 787 269 L 786 269 L 785 270 L 782 271 L 773 280 L 773 281 L 771 283 L 771 284 L 769 287 L 769 289 L 768 290 L 768 293 L 767 294 L 767 308 L 768 309 L 768 312 L 770 315 L 770 317 L 771 318 L 771 319 L 773 321 L 773 322 L 781 330 L 782 330 L 784 332 L 785 332 L 790 335 L 792 335 L 793 336 L 795 336 L 796 337 L 810 337 L 811 336 L 814 336 L 815 335 L 817 335 L 818 334 L 819 334 L 820 333 L 823 332 L 825 330 L 826 330 L 834 322 L 834 321 L 835 320 L 835 319 L 838 314 L 838 312 L 839 311 L 839 308 L 840 307 L 840 296 L 839 295 L 839 291 L 838 290 L 838 288 L 837 287 L 837 286 L 836 285 L 836 284 L 835 283 L 834 280 L 826 272 L 825 272 L 823 270 L 822 270 L 817 267 L 815 267 L 814 266 L 811 266 L 810 265 Z" fill="#000000" fill-rule="evenodd"/>
</svg>
